<?xml version="1.0" encoding="UTF-8"?>
<svg xmlns="http://www.w3.org/2000/svg" xmlns:xlink="http://www.w3.org/1999/xlink" width="99px" height="138px" viewBox="0 0 99 137" version="1.1">
<g id="surface1">
<path style=" stroke:none;fill-rule:nonzero;fill:rgb(100%,100%,100%);fill-opacity:1;" d="M 23.761719 13.796875 L 75.238281 13.796875 L 75.238281 98.5625 L 23.761719 98.5625 Z M 23.761719 13.796875 "/>
<path style=" stroke:none;fill-rule:evenodd;fill:rgb(43.921569%,45.098039%,44.705882%);fill-opacity:1;" d="M 98.902344 46.125 C 99.394531 54.40625 97.8125 62.585938 94.148438 70.078125 C 93.851562 70.765625 93.457031 71.457031 93.058594 72.148438 L 49.5 136.703125 L 5.839844 72.148438 C 5.445312 71.457031 5.148438 70.765625 4.753906 70.078125 C 1.1875 62.585938 -0.496094 54.40625 0 46.125 C 0.496094 37.847656 3.070312 29.863281 7.523438 22.867188 C 11.980469 15.867188 18.117188 10.152344 25.441406 6.109375 C 32.96875 2.070312 41.183594 0 49.5 0 C 57.816406 0 66.03125 2.070312 73.359375 6.109375 C 80.683594 10.152344 86.824219 15.867188 91.277344 22.867188 C 95.832031 29.863281 98.40625 37.847656 98.902344 46.125 Z M 49.5 46.125 L 73.359375 46.125 L 49.5 97.179688 L 49.5 65.246094 L 25.640625 65.246094 L 49.5 14.191406 Z M 49.5 46.125 "/>
</g>
</svg>
